<svg version="1.1" baseProfile="tiny" id="Layer_1" xmlns="http://www.w3.org/2000/svg" xmlns:xlink="http://www.w3.org/1999/xlink"  viewBox="19.4 285.9 451.4 152.1" xml:space="preserve">
<path d="M182.9,433.8l-2.7-3.8h-0.1c-1.2-0.1-2.4-0.1-3.6-0.1c-2.1,0-4.3,0-6.6-0.5c-1.1-0.1-2.1-1-2.1-2.2v-0.1c0.1-1.7,0.1-3.5,0.2-5.2c0-1.8,0.1-3.6,0.2-5.4c0.2-5.4,0.1-10.9,0.1-16.3c0-5.4-0.1-10.9,0.1-16.5c0.2-7.3,0.6-14.6,1.2-22.3v-0.1c0.4-2.4,0.4-4.8,0.4-7.3c-0.2-2.3-0.2-4.7-0.2-7v-5v-0.3l0.1-0.3c0.3-1,0.2-2.2,0.1-3.4c0-0.7-0.1-1.4-0.1-2.1c-0.3,0.3-0.7,0.6-1.1,0.9c-1.3,1.3-2.5,2.5-4.1,3.7c0,0,0,0.1-0.1,0.1c-0.1,0.2-0.3,0.4-0.5,0.7l-0.2,0.2c-0.4,0.3-0.7,0.5-1,0.8c-0.3,0.3-0.6,0.5-1,0.8c0,0,0,0.1-0.1,0.1c-0.1,0.2-0.3,0.4-0.5,0.7l-0.1,0.1c-1.6,1.3-3,2.7-4.4,4c-1,0.9-2,1.9-3,2.9c0,1.4-0.2,2.7-0.3,4c-0.1,1.5-0.3,3-0.3,4.4v0.1c-0.2,4.2-0.2,8.4-0.3,12.5c0,6,0,12.1-0.7,18.3c0,0.5,0,0.6,0.1,0.9l0.1,0.3v0.3c0,2-1.2,3.4-3,3.4h-0.1c-1.7-0.1-3.4-0.3-5-0.4c-1.5-0.1-3.1-0.3-4.8-0.4c-0.1,0-0.3,0.1-0.4,0.2c-0.1,0-0.2,0.1-0.3,0.1c-0.9,1-1,2.3-1,4.4c0,0.8,0,1.6-0.1,2.5c0,0.6-0.2,1.2-0.4,1.7c-0.5,4.3-0.5,8.6-0.5,12.8c0,3.2,0,6.5-0.2,9.8l-3.6-0.2c0.2-3.2,0.2-6.4,0.2-9.5c0-4.4,0-8.9,0.5-13.5v-0.3l0.1-0.3c0.1-0.2,0.2-0.5,0.2-0.6v-0.2c0.1-0.6,0.1-1.4,0.1-2.1c0.1-2.3,0.1-5.1,2.4-7.2l0.3-0.3l0.4-0.1c0.1,0,0.3-0.1,0.4-0.2c0.5-0.2,1.1-0.5,1.9-0.5h0.1c1.7,0.1,3.4,0.3,5,0.4c1.3,0.1,2.6,0.2,4,0.3c-0.1-0.5-0.1-0.9-0.1-1.3V390c0.7-6,0.7-12.1,0.7-18c0-4.2,0-8.4,0.3-12.7c0-1.6,0.2-3.2,0.3-4.7s0.3-3,0.3-4.4v-0.8l0.9-0.8c1.2-1,2.3-2.1,3.4-3.2c1.4-1.4,2.9-2.8,4.5-4.2c0,0,0-0.1,0.1-0.1c0.1-0.2,0.3-0.4,0.5-0.7l0.2-0.2c0.4-0.3,0.7-0.5,1-0.8c0.3-0.3,0.6-0.5,1-0.8c0,0,0-0.1,0.1-0.1c0.1-0.2,0.3-0.4,0.5-0.7l0.2-0.2c1.5-1.1,2.6-2.2,3.9-3.6l0.2-0.2c0.4-0.3,0.7-0.5,1-0.8c0.3-0.3,0.6-0.5,1-0.8c0,0,0-0.1,0.1-0.1c0.1-0.2,0.3-0.4,0.5-0.7l0.3-0.2c0.2-0.2,0.5-0.3,0.7-0.5c0.3-0.2,0.6-0.5,0.9-0.7l1.7-1.2l0.9,1.9c0,0.1,0.1,0.2,0.1,0.3v0.1l4.4,2.1l-4.4,1c-0.3,1-0.2,2.1-0.2,3.4c0.1,1.3,0.2,2.8-0.2,4.2c0.1,1.7,0,3.3,0,5c0,2.2-0.1,4.5,0.2,6.7v0.2c0,2.6,0,5.2-0.4,7.9c-0.6,7.5-1,14.8-1.2,22c-0.2,5.5-0.1,11-0.1,16.3c0,5.4,0.1,10.9-0.1,16.5c-0.1,1.8-0.1,3.6-0.2,5.3c0,1.3-0.1,2.7-0.1,4c1.6,0.2,3.3,0.2,5,0.2h1.7c0-0.3,0-0.5,0.1-0.8c0-0.3,0.2-0.8,0.7-1.6l0.6-1c0.5-12.7,1.3-25.5,2.1-37.9l0.1-0.9c0-1.3,1.2-2.5,2.6-2.5h0.1c5.3,0.4,10.2,0.6,14.5,0.4c0.2,0,0.3-0.1,0.5-0.1c0.4-1.4,0.4-3,0.3-4.7v-2.9c0.6-7.4,0.8-53.3,0.8-62.1c0-1.3,1.2-2.4,2.6-2.4c6.7,0.2,13.4,0.1,19.9,0c10.1-0.1,20.6-0.2,31,0.5l2.8-2.5v1v3.1v0.3v0.6v0.5v1l0.8,3.1l-0.8-0.4c0,2.5-0.1,5.5-0.1,9c-0.3,27.9-0.8,79.7-1.1,89.2c0,1.3-0.1,2.7-0.1,4.1c-0.1,2.8-0.2,5.5,0.1,8.3c4.1,0.3,7.9,0.3,11.5-0.1c0-0.2,0.1-0.4,0.1-0.6c0-0.3,0.1-0.6,0.1-1c0.8-13,1.4-41,1.9-68c0.5-25.1,0.9-48.7,1.6-60.5v-0.6l0.4-0.5c1.3-1.6,3.3-2.3,5.5-2h0.1c0.8,0.2,1.4,0.2,2.3,0.2c3.4-0.4,6.7-0.2,10,0c1.8,0.1,3.7,0.2,5.5,0.2c0.8,0,1.3,0.3,1.6,0.5c0.1,0,0.1,0.1,0.2,0.1l0.3,0.1l0.2,0.2c0.6,0.6,0.9,1.2,1.1,1.6l0.1,0.2c1.1,3.2,0.8,6.3,0.5,9.4c-0.1,1.3-0.2,2.6-0.2,3.8v0.4c-0.9,3.9-1.3,20.6-1.6,31.6c-0.1,5.4-0.2,9.6-0.4,11.5c-0.2,4.3,0,9.2,0.4,14.6h24.4c0.3-0.1,0.7-0.1,1,0h1.9l-0.1,1.9v0.2v0.1c0.2,1,0.1,2,0.1,2.9c0,0.4-0.1,0.8-0.1,1.2v0.1c-0.2,2.8-0.2,5.8-0.2,8.7v6.7c-0.1,1-0.1,1.9-0.2,2.8c-0.4,5.4-0.7,11-0.2,16.4v0.2c0,0.5,0,0.9-0.1,1.4c-0.1,1-0.1,1.9,0.1,2.8c2.7,1.2,5.7,1,8.9,0.9c1,0,2.1-0.1,3.2-0.1c0.4-2.1,0.4-4.2,0.4-6.3c0-1.9,0-3.9,0.3-5.9c0.1-1.4,1.3-2,1.8-2.3l0.2-0.1h0.2c3.9-0.9,7.6-0.8,10.7-0.6c0.9,0.1,1.6,0.1,2.4,0.1c1.3,0,2.6,0,4.1,0.3h0.3l0.2,0.1c0.1,0,0.2,0.1,0.2,0.1c0.6,0.3,1.7,0.8,1.7,2.1c0.1,3.4-0.3,6.8-0.6,10.1c-0.4,4-0.8,7.8-0.5,11.6l-3.6,0.3c-0.4-4.2,0.1-8.3,0.5-12.3c0.3-3,0.6-5.8,0.6-8.6c-1-0.1-2-0.2-3-0.2c-0.8,0-1.7,0-2.6-0.1c-2.6-0.2-5.8-0.2-9.1,0.4c-0.2,1.6-0.2,3.2-0.2,4.9c0,2.4,0,5-0.6,7.6c-0.1,1.3-1.2,2.3-2.4,2.3c-1.4-0.1-2.7,0-4.1,0c-3.7,0.1-7.6,0.3-11.3-1.6l-0.6-0.3l-0.3-0.6c-0.8-1.7-0.7-3.5-0.6-5v-1.2c-0.5-5.7-0.1-11.4,0.2-16.9c0.1-0.9,0.1-1.8,0.2-2.8c0.1-2.1,0.1-4.3,0-6.5c0-2.9-0.1-6,0.2-9c0-0.5,0-0.9,0.1-1.4v-0.8h-0.1l-0.8-0.4h-24.3c-1.3,0-2.2-1.3-2.2-2.4c0-0.5,0.1-0.9,0.2-1.1c-0.4-5.4-0.6-10.4-0.4-14.9c0.1-1.8,0.2-6.3,0.3-11.4c0.4-15.1,0.7-28,1.6-32.1c0-1.3,0.1-2.6,0.2-3.9c0.2-2.8,0.5-5.4-0.3-7.8c-0.1-0.2-0.2-0.3-0.3-0.4c-1.8,0-3.7-0.1-5.5-0.2c-3.3-0.2-6.3-0.4-9.4,0h-0.2c-1,0-1.9,0-3-0.2c-0.9-0.1-1.5,0.1-1.9,0.4c-0.6,12-1.1,35.2-1.6,59.7c-0.5,27.2-1.1,55.2-1.9,68.3v0.2c-0.1,0.3-0.1,0.6-0.1,0.9c-0.1,0.7-0.2,1.5-0.6,2.4l-0.4,1l-1,0.1c-4.4,0.6-8.9,0.6-13.9,0.2c-0.8,0-1.6-0.4-2.2-0.9l-0.4-0.4l-0.1-0.6c-0.6-3.5-0.5-6.8-0.3-10.1c0.1-1.4,0.1-2.7,0.1-4c0.3-9.5,0.9-63.3,1.1-89.2c0-4.5,0.1-8.3,0.1-11c-0.3-0.3-0.4-0.7-0.5-1.2c-9.9-0.6-19.8-0.5-29.5-0.4c-6.2,0.1-12.6,0.1-18.9,0c0,9.3-0.2,53.5-0.8,61.1c-0.1,0.8,0,1.7,0,2.6c0,2.3,0.1,4.7-0.9,7l-0.1,0.3l-0.2,0.2c-0.7,0.7-1.6,0.8-2,0.8h-0.3l-0.2,0.1h-0.2c-4.2,0.2-8.9,0.1-14.1-0.3c-0.9,13.9-1.8,27.1-2.2,40.7v1.2v0.3l3.1,3.1l-2.8-0.3v0.1l-0.5-0.1v0.1v0.2L182.9,433.8L182.9,433.8z"/>
<path d="M355.2,425.2c9.1,1.2,18-0.8,27-1c9.4-0.1,18.7,2.2,28.1,2.7c8.9,0.5,17.8-1.8,26.6-2.6c4.7-0.5,9.3-0.5,14.1-0.3c6,0.1,12.2,0.5,16.3,5.4c0.8,1,2.4,0,1.5-1c-5.1-6.1-12.6-6.2-19.9-6.4c-5-0.1-9.8,0.3-14.8,0.6c-5.2,0.4-10,1.6-15.2,2.1c-10.4,1.2-21.1-1.5-31.4-2.3c-10.7-0.8-21.3,2.2-32,0.8C354.1,423.2,354,425.1,355.2,425.2L355.2,425.2z"/>
<path d="M354.5,425c8.2,2.8,16.4,3.3,25,2c9.5-1.4,19.1-1.7,28.6-3.1c20.5-3.1,41.7,1.6,62.4,1.4c1,0-0.8-0.9-1.3-0.9c-18.6,0.2-37.4-3.5-56-2.3c-7.5,0.5-15,2-22.6,2.5c-12.1,0.8-23.4,4-35.3-0.1C354.4,424.2,353.1,424.5,354.5,425L354.5,425z"/>
<path d="M135.6,424.6c-10.2,1.3-20.3-1-30.5-0.6c-10.4,0.5-21,3.4-31.4,2.7c-5-0.3-9.7-2-14.6-2.3c-4.9-0.3-9.7-0.9-14.6-0.8c-8.1,0.1-17.5-0.6-23.2,6.3c-0.8,0.9,0.9,2.2,1.6,1.3c6.6-7.9,21.3-6.1,30.4-5.3c4.5,0.4,8.9,0.8,13.4,1.7c4.1,0.8,8.4,1.1,12.6,1c9.6-0.4,19-2.8,28.7-2.8c9.4,0,18.6,1.8,27.9,0.6C137.2,426.3,136.8,424.4,135.6,424.6L135.6,424.6z"/>
<path d="M134.5,426c-5.9,2-11.9,2.9-18.2,2.4c-4.8-0.4-9.5-1.5-14.4-1.9c-8.5-0.7-16.9-2-25.3-2.7c-8.3-0.6-17.1,0.2-25.4,0.7c-10.5,0.7-21,1.7-31.5,1.6c-1,0,0.8,0.9,1.3,0.9c10.5,0.1,21-1,31.5-1.6c9.8-0.6,20.2-1.6,29.9,0c8.8,1.4,17.8,1.3,26.6,2.8c9.3,1.5,18.1,1.8,27.1-1.3C136.8,426.6,135,425.8,134.5,426z"/>
<path d="M170.6,427.6h-0.9c0.2-7.3-0.8-12.9-1.7-18.2c-1-5.9-2.1-11.9-1.5-20.1c0.3-4.8,1.6-18.7,3.6-24.6c0.5-1.4,1.1-2.9,1.6-4.3c1.2-3,2.5-6.1,2.7-9.2c0.7-9.7,0.6-11.2-4.8-18.9l0.7-0.5c5.5,7.7,5.7,9.5,4.9,19.4c-0.2,3.2-1.5,6.4-2.8,9.5c-0.6,1.5-1.1,2.8-1.6,4.2c-1.7,5.2-3.1,17.7-3.5,24.4c-0.6,8,0.5,13.8,1.5,19.8C169.8,414.6,170.8,420.2,170.6,427.6z"/>
<path d="M269.2,429.2c-0.2-5.4,0.9-10.6,1.9-15.6c0.4-2,0.9-4.1,1.2-6.2c2.9-17.6,2.2-35.2-2.2-55.2c-0.2-0.9-0.4-1.7-0.6-2.6c-1.1-4.7-2.1-9.2-2.3-14c-0.2-4.7,0-9.5,0.2-14.1l0.1-2.5c0.2-7,0.5-16.7,5.7-22.5l0.6,0.5c-4.9,5.6-5.3,15.1-5.5,22l-0.1,2.5c-0.2,4.6-0.3,9.3-0.2,14c0.2,4.8,1.2,9.2,2.3,13.9c0.2,0.9,0.4,1.7,0.6,2.6c4.5,20.1,5.2,37.7,2.2,55.5l-1.2,6.3c-1,5-2.1,10.1-1.9,15.4H269.2L269.2,429.2z"/>
<path d="M321.3,414.1c-3.2-5.4-4.5-10.6-4.5-17.8c0-0.8,0-18.5,3.7-24.4c0.4-0.7,0.5-1.3,0.3-1.8c-0.3-0.8-1.5-1.8-5.4-2.6c-4.1-0.9-8.3-0.5-11.9,1.1c-0.4,0.2-1,0.5-1.6,0.9c-2.4,1.4-5.9,3.6-7.6,0.9l1-0.6c1,1.6,3.4,0.3,6-1.3c0.7-0.4,1.3-0.8,1.8-1c3.8-1.7,8.3-2.1,12.6-1.1c3.5,0.7,5.5,1.8,6.2,3.3c0.4,0.9,0.2,1.8-0.4,2.9c-2.8,4.6-3.6,17.6-3.6,23.8c0,7,1.2,12,4.3,17.2L321.3,414.1z"/>
<path d="M295.3,369.9c-2.4-10-3.6-20.2-3.8-30.5c-0.1-10-0.1-20.4,2.4-30.2c1.1-4.4,5.9-12-0.8-13.8c-5.1-1.4-11.1-0.4-16.3,0c-0.2,0-1,0.4-0.4,0.4c4.6-0.4,14.3-2.5,18.1,0.9c3.1,2.7-0.3,8-1.2,11c-1,3.3-1.6,6.7-2,10.2c-2.2,17.2-1.2,35.4,2.9,52.3C294.4,370.4,295.4,370.2,295.3,369.9L295.3,369.9z"/>
<path d="M252.4,429l-1.2-7.5c-1.3-7.1-2.5-13.8-1.6-21.1c0.7-5.9,2.2-11.7,3.6-16.7c1.3-4.8,1.7-10.1,2-15.1V368c0.3-4.6,0.7-8.9,1.2-13.1c0.6-5.8,1.1-11.3,1.4-17.6c0.2-4.8,0.9-19.5-5-27.1l0.6-0.5c5.4,7,5.5,19.1,5.1,27.6c-0.3,6.2-0.8,11.8-1.4,17.6c-0.4,4.2-0.8,8.5-1.1,13.1v0.6c-0.4,5.1-0.7,10.4-2,15.3c-1.3,5-2.8,10.8-3.5,16.6c-0.9,7.2,0.3,13.8,1.6,20.9c0.4,2.4,0.9,5,1.2,7.5L252.4,429L252.4,429z"/>
<path d="M282.7,287.2c0.2-0.4,0.3-0.8,0.5-1.3h-0.1c-0.6,0.3-1.2,0.7-1.8,1c-0.1,0-0.1,0.2-0.2,0.3c-0.5,1.3-3.9,8.1-4.4,9.4c0,0.1-0.1,0.2-0.1,0.3c-0.6-0.8-0.7-0.8-1.2-0.6c0.1,0.1,0.1,0.2,0.2,0.4c-0.2-0.1-0.3-0.2-0.4-0.2s-0.2,0.2-0.3,0.3c-0.7-0.8-0.8-0.8-1.6,0c-0.2-0.3-0.4-0.6-0.8-0.6s-0.6,0.3-0.8,0.6c-0.5-0.9-1.2-0.8-1.6-0.1l-0.2-0.2c-0.4-0.5-1-0.4-1.3,0.1c-0.1,0.3-0.2,0.6-0.4,0.9c-0.1-0.2-0.2-0.2-0.2-0.3l-4.2-9.3c-0.1-0.2-0.2-0.3-0.3-0.4c-0.5-0.3-1.1-0.6-1.6-0.8c-0.1,0-0.1,0-0.2-0.1c0,0.1,0.1,0.2,0.1,0.3c1.6,3.5,3.2,7,4.8,10.6c0.2,0.1,0.2,0.4,0.5,0.9c0.7,1,0.6,0.6,0.2,1.4c0,0.2-0.2,0.7-0.3,0.9c-0.8,2-1.6,4-2.4,6.1c0.2-0.1,0.3-0.1,0.3-0.1c0.5-0.3,1-0.5,1.5-0.8c0.1-0.1,0.3-0.2,0.3-0.4c0.5-1.2,1-2.5,1.5-3.7c0-0.1,0.1-0.2,0.2-0.3c0.2,0.4,0.4,0.6,0.8,0.6s0.6-0.3,0.8-0.6c0.6,0.8,0.9,0.8,1.6,0c0.2,0.3,0.4,0.6,0.8,0.6s0.6-0.3,0.8-0.7c0.2,0.4,0.4,0.7,0.8,0.7s0.6-0.3,0.8-0.6c0.1,0.2,0.3,0.4,0.5,0.1c-0.2,0.4-0.1,0.6,0.3,0.6c0.3,0,0.6-0.2,0.7-0.5c0.1-0.2,0.2-0.5,0.3-0.8c0.1,0.2,0.2,0.3,0.2,0.4c1.4,3.1,2.8,6.1,4.2,9.2c0.1,0.2,0.3,0.4,0.5,0.5c0.5,0.3,0.9,0.5,1.4,0.7c0.1,0,0.2,0.1,0.3,0.1c-0.2-0.4-0.4-0.8-0.5-1.2c-1.5-3.2-2.9-6.5-4.4-9.7c-0.1-0.1-0.1-0.2-0.1-0.3c-0.1-0.3-0.2-0.5-0.2-0.8h-0.1V299v-0.7v-0.2C278.5,296.1,282,288.8,282.7,287.2L282.7,287.2z M272.2,297.9c-0.1-0.1-0.2-0.2-0.3-0.2C272,297.8,272.1,297.8,272.2,297.9z M269.5,297.9c-0.2,0.4-0.3,0.9-0.5,1.3C269.2,298.8,269.3,298.3,269.5,297.9z M271.9,299.6l0.3-0.3L271.9,299.6z M274.8,298.6c0-0.1,0-0.2,0.1-0.3C274.9,298.4,274.8,298.5,274.8,298.6v0.2V298.6z M274.7,300.1l0.4-0.4L274.7,300.1z M275.6,299.2c-0.1-0.1-0.1-0.3-0.1-0.5c0-0.2,0.1-0.4,0.1-0.6c-0.1,0.2-0.1,0.3-0.1,0.6C275.5,298.9,275.5,299.1,275.6,299.2z"/>
<path d="M173.1,354.3c-0.2,0.1-0.3,0.1-0.4,0.1c-0.3,0.1-0.6,0.2-1,0.3v0.1h-1c-0.3,0-0.6,0-0.9,0.1h-0.3c-2.1-0.8-4.1-1.7-6.2-2.5c-0.5-0.2-1-0.4-1.6-0.6c0,0.1-0.1,0.1,0,0.1c0.4,0.8,0.8,1.5,1.2,2.3c0.1,0.1,0.2,0.2,0.3,0.2c1.6,0.6,3.1,1.2,4.7,1.8c0.1,0,0.2,0.1,0.3,0.2c-0.9,0.8-1,0.9-0.8,1.4c0.1-0.1,0.3-0.2,0.5-0.3c-0.1,0.2-0.3,0.4-0.3,0.5c0,0.1,0.3,0.3,0.4,0.4c-1,0.9-1,1,0,2c-0.4,0.2-0.7,0.5-0.7,1s0.4,0.7,0.8,1c-1.1,0.6-1,1.4-0.2,1.9l-0.2,0.2c-0.6,0.5-0.5,1.3,0.2,1.6c0.3,0.2,0.7,0.3,1.1,0.5c-0.2,0.1-0.3,0.2-0.4,0.3c-3.8,1.7-3.1,1.7-7,3.4c-0.2,0.1-0.4,0.2-0.5,0.4c-0.4,0.7-0.7,1.3-1,2c0,0.1,0,0.1-0.1,0.3c0.2-0.1,0.3-0.1,0.4-0.1c4.3-2,4.1-2.1,8.5-4.1c0.2-0.2,0.5-0.2,1.2-0.7c1.3-0.8,0.7-0.7,1.8-0.2c0.3,0,0.9,0.2,1.2,0.4c2.5,1,5,1.9,7.5,3c-0.1-0.2-0.1-0.3-0.2-0.4c-0.3-0.6-0.7-1.2-1-1.8c-0.1-0.2-0.3-0.3-0.4-0.4c-1.5-0.6-3-1.2-4.6-1.8c-0.1,0-0.2-0.1-0.4-0.2c0.4-0.3,0.8-0.5,0.8-1s-0.4-0.7-0.8-0.9c1-0.8,1-1.2,0-2c0.4-0.2,0.8-0.5,0.8-1s-0.3-0.8-0.9-1c0.5-0.2,0.8-0.5,0.9-1c0-0.5-0.3-0.8-0.8-1c0.3-0.2,0.5-0.3,0.2-0.7c0.5,0.3,0.7,0.2,0.7-0.3c0-0.4-0.2-0.7-0.6-0.9c-0.3-0.1-0.6-0.2-1-0.4c0.2-0.1,0.3-0.2,0.5-0.3c3.8-1.7,2.8-1.2,6.5-3c0.2-0.1,0.4-0.3,0.6-0.6c0.3-0.6,0.6-1.1,0.9-1.7c0.1-0.1,0.1-0.2,0.1-0.4c-0.5,0.2-1,0.4-1.5,0.7C176.3,352.9,177.1,352.5,173.1,354.3z M171.8,362.1c-0.2-0.2-0.4-0.4-0.7-0.4C171.4,361.7,171.7,361.9,171.8,362.1z M171.8,358.2l0.5,0.5C172.2,358.5,172,358.3,171.8,358.2z M170.7,357.8c0.2,0,0.4,0,0.6-0.1C171.1,357.7,170.9,357.8,170.7,357.8h-0.4C170.5,357.7,170.6,357.8,170.7,357.8z M169.6,359.5c0,0.2,0,0.5,0.1,0.7C169.6,360,169.6,359.7,169.6,359.5z M169.7,361.8c-0.1,0.1-0.2,0.3-0.3,0.4C169.5,362.1,169.6,361.9,169.7,361.8z M169.7,365.1c0.8,0.4,1.6,0.6,2.3,0.9C171.3,365.7,170.5,365.5,169.7,365.1z"/>
<path d="M98,427.4c-0.1-0.1-0.1-0.2-0.1-0.3c-0.1-0.2-0.2-0.5-0.2-0.8h-0.1v-0.8v-0.7v-0.2c0.6-1.6,1.3-3.1,1.9-4.7c0.2-0.4,0.3-0.8,0.5-1.2h-0.1c-0.6,0.3-1.2,0.6-1.7,0.9c-0.1,0-0.1,0.2-0.2,0.3c-0.5,1.2-0.9,2.4-1.4,3.6c0,0.1-0.1,0.2-0.1,0.3c-0.6-0.7-0.7-0.8-1.1-0.6c0.1,0.1,0.1,0.2,0.2,0.4c-0.2-0.1-0.3-0.2-0.4-0.2s-0.2,0.2-0.3,0.3c-0.7-0.8-0.8-0.8-1.5,0c-0.2-0.3-0.4-0.6-0.7-0.6c-0.4,0-0.6,0.3-0.7,0.6c-0.4-0.8-1.1-0.7-1.5-0.1l-0.2-0.2c-0.4-0.5-1-0.4-1.2,0.1c-0.1,0.3-0.2,0.5-0.4,0.8c-0.1-0.1-0.2-0.2-0.2-0.3c-1.3-2.9-2.7-5.8-4-8.7c-0.1-0.1-0.2-0.3-0.3-0.4c-0.5-0.3-1-0.5-1.5-0.8h-0.2c0,0.1,0.1,0.2,0.1,0.3l4.5,9.9c0.1,0.1,0.2,0.4,0.5,0.9c0.6,1,0.5,0.5,0.2,1.3c0,0.2-0.2,0.7-0.3,0.9c-0.7,1.9-1.5,3.8-2.3,5.7c0.2-0.1,0.2-0.1,0.3-0.1c0.5-0.3,0.9-0.5,1.4-0.8l0.3-0.3c0.5-1.2,0.9-2.3,1.4-3.5c0-0.1,0.1-0.2,0.2-0.3c0.2,0.3,0.4,0.6,0.8,0.6s0.5-0.3,0.7-0.6c0.6,0.8,0.9,0.8,1.5,0c0.2,0.3,0.3,0.6,0.7,0.6s0.6-0.2,0.7-0.6c0.2,0.4,0.4,0.6,0.7,0.6c0.4,0,0.6-0.2,0.8-0.6c0.1,0.2,0.2,0.4,0.5,0.1c-0.2,0.4-0.1,0.5,0.3,0.6c0.3,0,0.5-0.2,0.7-0.5c0.1-0.2,0.2-0.5,0.3-0.8c0.1,0.2,0.2,0.2,0.2,0.3c1.3,2.9,2.6,5.7,3.9,8.6c0.1,0.2,0.3,0.3,0.4,0.4c0.4,0.2,0.9,0.4,1.3,0.7c0.1,0,0.2,0.1,0.3,0.1c-0.2-0.4-0.3-0.8-0.5-1.1C100.8,433.4,99.4,430.4,98,427.4L98,427.4z M92.3,424.8c-0.1-0.1-0.2-0.2-0.3-0.2C92.1,424.7,92.2,424.7,92.3,424.8z M89.1,426.5c0.2-0.6,0.4-1.1,0.7-1.7C89.5,425.4,89.3,426,89.1,426.5z M95.4,425.6c0,0.2,0,0.3,0.1,0.5C95.4,425.9,95.4,425.7,95.4,425.6z"/>
<path d="M404,437.1l-4.8-10.5c-0.1-0.2-0.1-0.2-0.1-0.3l-0.3-0.9h-0.1v-0.9c0-0.3,0-0.5-0.1-0.8v-0.3c0.7-1.8,1.5-3.6,2.2-5.4c0.2-0.5,0.4-0.9,0.5-1.4h-0.1c-0.7,0.4-1.3,0.7-2,1.1c-0.1,0.1-0.2,0.2-0.2,0.3c-0.5,1.4-1.1,2.7-1.6,4.1c0,0.1-0.1,0.2-0.2,0.3c-0.7-0.8-0.8-0.9-1.3-0.7c0.1,0.1,0.1,0.2,0.3,0.4c-0.2-0.1-0.4-0.3-0.5-0.2c-0.1,0-0.2,0.2-0.3,0.3c-0.8-0.9-0.9-0.9-1.8,0c-0.2-0.4-0.4-0.7-0.9-0.7c-0.4,0-0.7,0.3-0.9,0.7c-0.5-1-1.3-0.9-1.7-0.1l-0.2-0.2c-0.4-0.5-1.1-0.5-1.4,0.1c-0.1,0.3-0.3,0.6-0.4,1c-0.1-0.2-0.2-0.3-0.2-0.4c-1.5-3.4-3.1-6.7-4.6-10.1c-0.1-0.2-0.2-0.3-0.4-0.4l-1.8-0.9c-0.1,0-0.1,0-0.3-0.1c0,0.1,0.1,0.2,0.1,0.3c1.7,3.8,3.5,7.6,5.2,11.4c0.2,0.1,0.2,0.5,0.6,1c0.7,1.1,0.6,0.6,0.2,1.5c0,0.2-0.2,0.8-0.3,1c-0.9,2.2-1.7,4.4-2.6,6.6c0.2-0.1,0.3-0.1,0.4-0.2c0.5-0.3,1.1-0.6,1.6-0.9c0.1-0.1,0.3-0.2,0.3-0.4c0.5-1.3,1.1-2.7,1.6-4c0-0.1,0.1-0.2,0.2-0.4c0.2,0.4,0.5,0.7,0.9,0.7s0.6-0.3,0.8-0.7c0.7,0.9,1,0.9,1.8,0c0.2,0.4,0.4,0.7,0.9,0.7c0.4,0,0.7-0.3,0.9-0.7c0.2,0.4,0.4,0.7,0.9,0.7s0.7-0.3,0.9-0.7c0.1,0.2,0.3,0.4,0.6,0.1c-0.3,0.4-0.1,0.6,0.3,0.6c0.3,0,0.6-0.2,0.8-0.5c0.1-0.3,0.2-0.5,0.4-0.9c0.1,0.2,0.2,0.3,0.2,0.4l4.5,9.9c0.1,0.2,0.3,0.4,0.5,0.5c0.5,0.3,1,0.5,1.5,0.8c0.1,0,0.2,0.1,0.4,0.1C404.4,438,404.2,437.5,404,437.1L404,437.1z M389.2,424.9c-0.2,0.4-0.3,0.9-0.5,1.3C388.9,425.8,389,425.4,389.2,424.9c0.2-0.4,0.3-0.9,0.5-1.4C389.5,424,389.4,424.5,389.2,424.9z M391.6,423.6c0.1,0,0.2-0.1,0.3-0.1C391.8,423.5,391.7,423.5,391.6,423.6z M394.7,423.5L394.7,423.5L394.7,423.5c-0.2,0-0.4,0-0.7,0.1C394.3,423.5,394.5,423.5,394.7,423.5z M395.4,425.9l0.5-0.5C395.7,425.6,395.5,425.7,395.4,425.9z"/>
<path d="M327.6,372c-0.1-0.1-0.1-0.2-0.1-0.3c-0.1-0.3-0.2-0.5-0.2-0.8h-0.1v-0.8v-0.7v-0.2c0.7-1.7,1.3-3.3,2-5c0.2-0.4,0.3-0.8,0.5-1.3h-0.1c-0.6,0.3-1.2,0.7-1.8,1c-0.1,0-0.1,0.2-0.2,0.3c-0.5,1.3-1,2.5-1.5,3.8c0,0.1-0.1,0.2-0.1,0.3c-0.6-0.8-0.7-0.8-1.2-0.6c0.1,0.1,0.1,0.2,0.2,0.4c-0.2-0.1-0.3-0.2-0.4-0.2s-0.2,0.2-0.3,0.3c-0.7-0.8-0.8-0.8-1.6,0c-0.2-0.3-0.4-0.6-0.8-0.6s-0.6,0.3-0.8,0.6c-0.5-0.9-1.2-0.8-1.6-0.1l-0.2-0.2c-0.4-0.5-1-0.4-1.3,0.1c-0.1,0.3-0.2,0.6-0.4,0.9c-0.1-0.2-0.2-0.2-0.2-0.3l-4.2-9.3c-0.1-0.2-0.2-0.3-0.3-0.4c-0.5-0.3-1.1-0.6-1.6-0.8c-0.1,0-0.1,0-0.2-0.1c0,0.1,0.1,0.2,0.1,0.3c1.6,3.5,3.2,7,4.8,10.6c0.2,0.1,0.2,0.4,0.5,0.9c0.7,1,0.6,0.6,0.2,1.4c0,0.2-0.2,0.7-0.3,0.9c-0.8,2-1.6,4-2.4,6.1c0.2-0.1,0.3-0.1,0.3-0.1c0.5-0.3,1-0.5,1.5-0.8c0.1-0.1,0.3-0.2,0.3-0.4c0.5-1.2,1-2.5,1.5-3.7c0-0.1,0.1-0.2,0.2-0.3c0.2,0.4,0.4,0.6,0.8,0.6s0.6-0.3,0.8-0.6c0.6,0.8,0.9,0.8,1.6,0c0.2,0.3,0.4,0.6,0.8,0.6s0.6-0.3,0.8-0.7c0.2,0.4,0.4,0.7,0.8,0.7s0.6-0.3,0.8-0.6c0.1,0.2,0.3,0.4,0.5,0.1c-0.2,0.4-0.1,0.6,0.3,0.6c0.3,0,0.6-0.2,0.7-0.5c0.1-0.2,0.2-0.5,0.3-0.8c0.1,0.2,0.2,0.3,0.2,0.4c1.4,3.1,2.8,6.1,4.2,9.2c0.1,0.2,0.3,0.4,0.5,0.5c0.5,0.3,0.9,0.5,1.4,0.7c0.1,0,0.2,0.1,0.3,0.1c-0.2-0.4-0.4-0.8-0.5-1.2C330.5,378.5,329.1,375.2,327.6,372L327.6,372z M321.5,369.3c-0.1-0.1-0.2-0.2-0.3-0.2C321.3,369.1,321.4,369.2,321.5,369.3z M318.6,369.9c-0.2,0.6-0.4,1.2-0.7,1.8C318.2,371.1,318.4,370.5,318.6,369.9l0.3-0.6L318.6,369.9z M321.6,370.4v-0.2v-0.1v0.1V370.4z M323.4,369.2L323.4,369.2L323.4,369.2c-0.2,0-0.4,0-0.6,0.1C323,369.2,323.2,369.2,323.4,369.2z M322.4,370.7c0.2,0.2,0.4,0.2,0.6,0.2C322.8,371,322.6,371,322.4,370.7z"/>
<path d="M256.6,373.6c-0.1,0.1-0.2,0.1-0.3,0.1c-0.3,0.1-0.5,0.2-0.8,0.2v0.1h-0.9h-0.7h-0.3c-1.7-0.7-3.5-1.4-5.2-2.1c-0.4-0.2-0.9-0.3-1.3-0.5v0.1c0.3,0.6,0.7,1.3,1,1.9c0.1,0.1,0.2,0.2,0.3,0.2c1.3,0.5,2.6,1,3.9,1.6c0.1,0,0.2,0.1,0.3,0.2c-0.8,0.6-0.9,0.7-0.7,1.2c0.1-0.1,0.2-0.1,0.4-0.2c-0.1,0.2-0.3,0.3-0.2,0.5c0,0.1,0.2,0.2,0.3,0.3c-0.8,0.7-0.8,0.9,0,1.7c-0.3,0.2-0.6,0.4-0.6,0.8s0.3,0.6,0.7,0.8c-0.9,0.5-0.8,1.2-0.1,1.6l-0.2,0.2c-0.5,0.4-0.5,1.1,0.1,1.4c0.3,0.1,0.6,0.2,0.9,0.4c-0.2,0.1-0.2,0.2-0.3,0.2c-3.2,1.5-2.7,1.4-5.9,2.9c-0.2,0.1-0.3,0.2-0.4,0.3c-0.3,0.5-0.6,1.1-0.9,1.7c0,0.1,0,0.1-0.1,0.2c0.1,0,0.2-0.1,0.3-0.1c3.7-1.6,3.5-1.8,7.2-3.4c0.1-0.2,0.4-0.2,1-0.6c1.1-0.7,0.6-0.6,1.5-0.2c0.2,0,0.8,0.2,1,0.3c2.1,0.8,4.2,1.7,6.3,2.5c-0.1-0.2-0.1-0.3-0.1-0.4c-0.3-0.5-0.6-1-0.9-1.5c-0.1-0.1-0.2-0.3-0.4-0.3c-1.3-0.5-2.6-1-3.8-1.5c-0.1,0-0.2-0.1-0.3-0.2c0.4-0.2,0.7-0.4,0.6-0.9c0-0.4-0.3-0.6-0.6-0.8c0.9-0.6,0.9-1,0-1.7c0.3-0.2,0.6-0.4,0.6-0.8c0-0.4-0.3-0.6-0.7-0.8c0.4-0.2,0.7-0.4,0.7-0.8c0-0.4-0.3-0.7-0.7-0.8c0.2-0.1,0.4-0.3,0.1-0.6c0.4,0.2,0.6,0.1,0.6-0.3c0-0.3-0.2-0.6-0.5-0.8c-0.3-0.1-0.5-0.2-0.9-0.4c0.2-0.1,0.3-0.2,0.4-0.2c3.2-1.4,2.4-1,5.5-2.5c0.2-0.1,0.4-0.3,0.5-0.5c0.3-0.5,0.5-1,0.7-1.5c0-0.1,0.1-0.2,0.1-0.3c-0.4,0.2-0.8,0.4-1.3,0.6C259.3,372.4,259.9,372.1,256.6,373.6L256.6,373.6z M255.4,377.9v0.4C255.5,378.2,255.4,378.1,255.4,377.9z M255.1,379.9c-0.1-0.1-0.3-0.1-0.5-0.1h-0.1h0.1C254.8,379.8,255,379.8,255.1,379.9z M254.4,377.2c-0.1,0-0.2-0.1-0.3-0.1C254.2,377.1,254.3,377.2,254.4,377.2h0.2H254.4z M254.5,376.5h0.3H254.5c-0.2,0-0.4-0.1-0.6-0.2C254.1,376.5,254.3,376.5,254.5,376.5z M253.6,377.9c0,0.2,0,0.4,0.1,0.6C253.6,378.4,253.6,378.1,253.6,377.9C253.6,378,253.5,378,253.6,377.9C253.5,378,253.6,378,253.6,377.9z M253.7,382.7c0.2,0.1,0.4,0.2,0.7,0.3C254.1,382.9,253.9,382.8,253.7,382.7z"/>
<path d="M224.6,313.5c-0.1-0.1-0.1-0.2-0.1-0.3c-0.1-0.3-0.2-0.5-0.2-0.8h-0.1v-0.9v-0.7v-0.3c0.7-1.7,1.4-3.4,2.1-5.2c0.2-0.4,0.3-0.9,0.5-1.3h-0.1c-0.6,0.3-1.3,0.7-1.9,1c-0.1,0.1-0.2,0.2-0.2,0.3c-0.5,1.3-1,2.6-1.6,3.9c0,0.1-0.1,0.2-0.2,0.3c-0.6-0.8-0.7-0.8-1.2-0.7c0.1,0.1,0.1,0.2,0.2,0.4c-0.2-0.1-0.3-0.3-0.5-0.2c-0.1,0-0.2,0.2-0.3,0.3c-0.7-0.8-0.9-0.8-1.7,0c-0.2-0.3-0.4-0.6-0.8-0.6s-0.6,0.3-0.8,0.7c-0.5-0.9-1.2-0.8-1.6-0.1l-0.2-0.2c-0.4-0.5-1.1-0.5-1.4,0.1c-0.1,0.3-0.2,0.6-0.4,0.9c-0.1-0.2-0.2-0.2-0.2-0.3c-1.4-3.2-2.9-6.4-4.3-9.6c-0.1-0.2-0.2-0.3-0.3-0.4c-0.5-0.3-1.1-0.6-1.7-0.9c-0.1,0-0.1,0-0.2-0.1c0,0.1,0.1,0.2,0.1,0.3c1.6,3.6,3.3,7.3,4.9,10.9c0.2,0.1,0.2,0.4,0.6,1c0.7,1.1,0.6,0.6,0.2,1.5c0,0.2-0.2,0.8-0.3,1c-0.8,2.1-1.6,4.1-2.5,6.3c0.2-0.1,0.3-0.1,0.4-0.1l1.5-0.9c0.1-0.1,0.3-0.2,0.3-0.4c0.5-1.3,1-2.5,1.5-3.8c0-0.1,0.1-0.2,0.2-0.3c0.2,0.4,0.4,0.7,0.9,0.6c0.4,0,0.6-0.3,0.8-0.6c0.6,0.9,1,0.9,1.7,0c0.2,0.3,0.4,0.6,0.8,0.6s0.6-0.3,0.8-0.7c0.2,0.4,0.4,0.7,0.8,0.7s0.7-0.3,0.8-0.7c0.1,0.2,0.3,0.4,0.6,0.1c-0.2,0.4-0.1,0.6,0.3,0.6c0.3,0,0.6-0.2,0.8-0.5c0.1-0.3,0.2-0.5,0.4-0.9c0.1,0.2,0.2,0.3,0.2,0.4c1.4,3.2,2.8,6.3,4.3,9.5c0.1,0.2,0.3,0.4,0.5,0.5c0.5,0.3,1,0.5,1.4,0.7c0.1,0,0.2,0.1,0.3,0.1c-0.2-0.4-0.4-0.8-0.5-1.2C227.6,320.2,226.1,316.8,224.6,313.5L224.6,313.5z M218.3,310.6c-0.1-0.1-0.2-0.2-0.3-0.2C218.1,310.5,218.2,310.5,218.3,310.6z M215.5,310.6c-0.3,0.7-0.5,1.3-0.7,1.9C215.1,311.9,215.2,311.3,215.5,310.6z M217.4,310.6c0.1,0,0.2-0.1,0.3-0.1C217.6,310.5,217.4,310.6,217.4,310.6z M218.3,312c-0.1,0.1-0.2,0.3-0.3,0.4C218.2,312.3,218.3,312.2,218.3,312c0-0.2,0.1-0.3,0.1-0.5C218.4,311.8,218.4,311.9,218.3,312z M221,311.8v0.5V311.8z M220.9,312.9c0.2-0.2,0.3-0.3,0.5-0.4C221.2,312.6,221.1,312.7,220.9,312.9z M221.7,311.5v-0.3V311.5v0.3V311.5z"/>
<path d="M180.3,428c-0.1-2.2-0.6-4.6-1.1-7.2c-1.3-6.9-2.7-14,2.4-17.5l1.8-1.2c4.2-2.9,8.5-5.8,11.9-9.8c2.9-3.5,4.8-7.3,5.5-11.2c0.3-1.6,0.6-2.4,0.7-3c0.3-0.9,0.4-1.1-0.1-3.8c-0.8-4.4-2.3-15.3-2.5-20.2c-0.2-5.7,0-11,0.2-16.5c0.1-3.6,0.3-7.3,0.3-11.1c0-1.7,0.2-10.4,2.3-13.4c1.3-1.8,3.7-2,5.8-2.2l0.7-0.1c6.2-0.6,12.4,0.5,18.5,1.7c3.6,0.7,7.3,1.3,11,1.6l0.9,0.1c5.4,0.4,10.5,0.9,15.4-1.1l0.3,0.7c-5.1,2.1-10.3,1.7-15.8,1.2l-0.9-0.1c-3.7-0.3-7.4-1-11-1.7c-6-1.1-12.2-2.2-18.3-1.7l-0.7,0.1c-2,0.2-4.2,0.4-5.2,1.8c-1.6,2.2-2.2,8.3-2.2,12.9c0,3.8-0.2,7.6-0.3,11.2c-0.2,5.5-0.4,10.8-0.2,16.5c0.1,4.9,1.7,15.7,2.5,20.1c0.5,2.8,0.4,3.1,0.1,4.2c-0.2,0.5-0.4,1.3-0.7,2.9c-0.7,4-2.7,8-5.7,11.6c-3.4,4.1-7.8,7-12,9.9l-1.8,1.2c-4.7,3.2-3.3,10.1-2,16.7c0.5,2.6,1,5,1.1,7.3L180.3,428z"/>
</svg>
